<svg width="65" height="57" viewBox="0 0 65 57" fill="none" xmlns="http://www.w3.org/2000/svg">
<path d="M65 21.5676C65 31.8378 63.5998 39.3205 60.7993 44.0154C57.8515 48.7104 52.2506 53.0386 43.9966 57L34.4898 42.4749C40.3855 38.9537 43.7018 36.3127 44.4388 34.5521C45.1757 32.9382 45.5442 31.7645 45.5442 31.0309L35.1531 31.0309L35.1531 -6.424e-06L65 -3.8147e-06L65 21.5676ZM30.5102 21.5676C30.5102 31.8378 29.11 39.3205 26.3095 44.0154C23.5091 48.7104 17.9082 53.0386 9.5068 57L1.26982e-06 42.4749C5.89569 38.9537 9.21202 36.3127 9.94898 34.5521C10.6859 32.9382 11.0544 31.7645 11.0544 31.0309L0.663264 31.0309L0.663266 -9.43919e-06L30.5102 -6.82989e-06L30.5102 21.5676Z" fill="#525596"/>
</svg>
