<svg width="336" height="59" viewBox="0 0 336 59" fill="none" xmlns="http://www.w3.org/2000/svg">
<path d="M51.3724 0.0762939C46.3466 0.0762939 42.3582 4.2006 42.3582 9.09049C42.3582 12.017 43.7659 14.5978 45.9021 16.2401L39.9997 32.7744C39.5181 32.7003 39.0118 32.6509 38.4932 32.6509C37.6535 32.6509 36.8509 32.762 36.0853 32.9843L30.8002 24.5752C32.1462 22.9946 32.9488 20.9571 32.9488 18.7468C32.9488 13.7211 28.8245 9.7326 23.9346 9.7326C18.9089 9.7326 14.9204 13.8569 14.9204 18.7468C14.9204 21.4634 16.1306 23.8713 18.0075 25.526L10.722 40.9859C10.2898 40.9242 9.85766 40.8872 9.41313 40.8872C4.3874 40.8872 0.398926 45.0115 0.398926 49.9014C0.398926 54.9271 4.52323 58.9156 9.41313 58.9156C14.303 58.9156 18.2915 54.9271 18.4273 49.9014C18.4273 47.16 17.1925 44.7274 15.2785 43.0728L22.564 27.6375C23.0209 27.7116 23.4777 27.7486 23.9593 27.7486C24.8854 27.7486 25.7869 27.6128 26.6265 27.3412L31.8251 35.6145C30.3804 37.2197 29.4913 39.3436 29.4913 41.6404C29.4913 46.6661 33.6156 50.6546 38.5055 50.6546C43.5313 50.6546 47.5197 46.6661 47.5197 41.6404C47.5197 38.9732 46.396 36.59 44.5809 34.9477L50.6191 18.0429C50.8661 18.0676 51.1254 18.08 51.3847 18.08C56.4104 18.08 60.3989 14.0915 60.3989 9.0658C60.3866 4.06477 56.3981 0.0762939 51.3724 0.0762939ZM9.41313 53.754C7.35097 53.754 5.54813 52.0746 5.54813 49.889C5.54813 47.8269 7.22749 46.024 9.41313 46.024C11.4753 46.024 13.2781 47.7034 13.2781 49.889C13.2658 51.9512 11.5988 53.754 9.41313 53.754ZM20.0943 18.7345C20.0943 16.6723 21.7737 14.8695 23.9593 14.8695C26.145 14.8695 27.8243 16.6723 27.8243 18.7345C27.8243 20.7966 26.145 22.5994 23.9593 22.5994C21.8972 22.5994 20.0943 20.7966 20.0943 18.7345ZM42.3705 41.6527C42.3705 43.7149 40.5677 45.5177 38.5055 45.5177C36.4434 45.5177 34.6405 43.8384 34.6405 41.6527C34.6405 39.5906 36.3199 37.7878 38.5055 37.7878C40.6912 37.7878 42.494 39.5906 42.3705 41.6527ZM51.3724 12.9431C49.3102 12.9431 47.5074 11.1403 47.5074 9.07815C47.5074 7.01599 49.1867 5.21315 51.3724 5.21315C53.558 5.21315 55.2374 7.01599 55.2374 9.07815C55.2374 11.1403 53.5704 12.9431 51.3724 12.9431Z" fill="#FD7400"/>
<path d="M84.4341 33.8436C84.4341 35.367 83.8833 36.5623 82.7817 37.4295C81.6802 38.2967 80.1606 38.7303 78.2231 38.7303C76.2856 38.7303 74.6997 38.4295 73.4653 37.8279V35.1795C74.2466 35.5467 75.0747 35.8358 75.9497 36.0467C76.8325 36.2576 77.6528 36.3631 78.4106 36.3631C79.52 36.3631 80.3364 36.1522 80.8599 35.7303C81.3911 35.3084 81.6567 34.742 81.6567 34.0311C81.6567 33.3904 81.4146 32.8475 80.9302 32.4022C80.4458 31.9568 79.4458 31.4295 77.9302 30.8201C76.3677 30.1873 75.2661 29.4647 74.6255 28.6522C73.9849 27.8397 73.6646 26.8631 73.6646 25.7225C73.6646 24.2928 74.1724 23.1678 75.188 22.3475C76.2036 21.5272 77.5669 21.117 79.2778 21.117C80.9185 21.117 82.5513 21.4764 84.1763 22.1951L83.2856 24.4803C81.7622 23.8397 80.4028 23.5193 79.2075 23.5193C78.3013 23.5193 77.6138 23.7186 77.145 24.117C76.6763 24.5076 76.4419 25.0272 76.4419 25.6756C76.4419 26.1209 76.5356 26.5037 76.7231 26.824C76.9106 27.1365 77.2192 27.4334 77.6489 27.7147C78.0786 27.9959 78.8521 28.367 79.9692 28.8279C81.2271 29.3514 82.1489 29.8397 82.7349 30.2928C83.3208 30.7459 83.7505 31.2576 84.0239 31.8279C84.2974 32.3983 84.4341 33.0701 84.4341 33.8436ZM107.761 29.9061C107.761 32.6951 107.062 34.8631 105.664 36.41C104.273 37.9568 102.3 38.7303 99.7458 38.7303C97.1599 38.7303 95.1716 37.9647 93.781 36.4334C92.3981 34.8943 91.7067 32.7108 91.7067 29.8826C91.7067 27.0545 92.4021 24.8826 93.7927 23.367C95.1911 21.8514 97.1833 21.0936 99.7692 21.0936C102.316 21.0936 104.285 21.8631 105.675 23.4022C107.066 24.9412 107.761 27.1092 107.761 29.9061ZM94.6833 29.9061C94.6833 32.0154 95.1091 33.617 95.9606 34.7108C96.8122 35.7967 98.0739 36.3397 99.7458 36.3397C101.41 36.3397 102.664 35.8006 103.508 34.7225C104.359 33.6443 104.785 32.0389 104.785 29.9061C104.785 27.8045 104.363 26.2108 103.519 25.1248C102.683 24.0389 101.433 23.4959 99.7692 23.4959C98.0896 23.4959 96.82 24.0389 95.9606 25.1248C95.1091 26.2108 94.6833 27.8045 94.6833 29.9061ZM129.671 21.3631V32.449C129.671 33.7147 129.397 34.824 128.85 35.7772C128.311 36.7225 127.526 37.4529 126.495 37.9686C125.472 38.4764 124.245 38.7303 122.815 38.7303C120.69 38.7303 119.038 38.1678 117.858 37.0428C116.679 35.9178 116.089 34.3709 116.089 32.4022V21.3631H118.901V32.2029C118.901 33.617 119.229 34.66 119.886 35.3318C120.542 36.0037 121.55 36.3397 122.909 36.3397C125.55 36.3397 126.87 34.9529 126.87 32.1795V21.3631H129.671ZM141.654 29.3318H143.6C144.904 29.3318 145.85 29.0897 146.436 28.6053C147.022 28.1209 147.315 27.4022 147.315 26.449C147.315 25.4803 146.998 24.785 146.365 24.3631C145.733 23.9412 144.779 23.7303 143.506 23.7303H141.654V29.3318ZM141.654 31.6522V38.4959H138.854V21.3631H143.693C145.904 21.3631 147.541 21.7772 148.604 22.6053C149.666 23.4334 150.197 24.6834 150.197 26.3553C150.197 28.4881 149.088 30.0076 146.869 30.9139L151.709 38.4959H148.522L144.42 31.6522H141.654ZM166.294 23.5193C164.685 23.5193 163.419 24.0897 162.497 25.2303C161.575 26.3709 161.115 27.9451 161.115 29.9529C161.115 32.0545 161.556 33.6443 162.439 34.7225C163.329 35.8006 164.615 36.3397 166.294 36.3397C167.021 36.3397 167.724 36.2693 168.404 36.1287C169.083 35.9803 169.79 35.7928 170.525 35.5662V37.9686C169.181 38.4764 167.658 38.7303 165.954 38.7303C163.447 38.7303 161.521 37.9725 160.177 36.4568C158.833 34.9334 158.161 32.7576 158.161 29.9295C158.161 28.1483 158.486 26.5897 159.134 25.2537C159.79 23.9178 160.736 22.8943 161.97 22.1834C163.204 21.4725 164.654 21.117 166.318 21.117C168.068 21.117 169.685 21.4842 171.169 22.2186L170.161 24.5506C169.583 24.2772 168.97 24.0389 168.322 23.8358C167.681 23.6248 167.005 23.5193 166.294 23.5193ZM188.708 38.4959H179.016V21.3631H188.708V23.7303H181.817V28.3943H188.274V30.7381H181.817V36.117H188.708V38.4959ZM211.156 29.7654C211.156 32.5936 210.371 34.7576 208.8 36.2576C207.23 37.7498 204.968 38.4959 202.015 38.4959H197.222V21.3631H202.519C205.246 21.3631 207.367 22.0975 208.883 23.5662C210.398 25.035 211.156 27.1014 211.156 29.7654ZM208.203 29.8592C208.203 25.7576 206.285 23.7068 202.449 23.7068H200.023V36.1404H202.015C206.14 36.1404 208.203 34.0467 208.203 29.8592ZM226.936 23.5193C225.327 23.5193 224.061 24.0897 223.14 25.2303C222.218 26.3709 221.757 27.9451 221.757 29.9529C221.757 32.0545 222.198 33.6443 223.081 34.7225C223.972 35.8006 225.257 36.3397 226.936 36.3397C227.663 36.3397 228.366 36.2693 229.046 36.1287C229.725 35.9803 230.433 35.7928 231.167 35.5662V37.9686C229.823 38.4764 228.3 38.7303 226.597 38.7303C224.089 38.7303 222.163 37.9725 220.819 36.4568C219.475 34.9334 218.804 32.7576 218.804 29.9295C218.804 28.1483 219.128 26.5897 219.776 25.2537C220.433 23.9178 221.378 22.8943 222.612 22.1834C223.847 21.4725 225.296 21.117 226.96 21.117C228.71 21.117 230.327 21.4842 231.811 22.2186L230.804 24.5506C230.225 24.2772 229.612 24.0389 228.964 23.8358C228.323 23.6248 227.647 23.5193 226.936 23.5193ZM250.287 38.4959L248.576 33.7381H242.025L240.35 38.4959H237.397L243.807 21.2928H246.854L253.264 38.4959H250.287ZM247.838 31.324L246.233 26.66C246.115 26.3475 245.951 25.8553 245.74 25.1834C245.537 24.5115 245.397 24.0193 245.318 23.7068C245.108 24.6678 244.799 25.7186 244.393 26.8592L242.846 31.324H247.838ZM274.599 38.4959H271.165L262.74 24.8436H262.646L262.704 25.6053C262.814 27.0584 262.868 28.3865 262.868 29.5897V38.4959H260.325V21.3631H263.724L272.126 34.9451H272.197C272.181 34.7654 272.15 34.1131 272.103 32.9881C272.056 31.8553 272.033 30.9725 272.033 30.3397V21.3631H274.599V38.4959ZM293.684 21.3631H296.59L290.59 38.4959H287.637L281.661 21.3631H284.543L288.118 32.0154C288.305 32.5233 288.504 33.1795 288.715 33.9842C288.926 34.7811 289.063 35.3748 289.125 35.7654C289.227 35.1717 289.383 34.4842 289.594 33.7029C289.805 32.9217 289.977 32.3436 290.11 31.9686L293.684 21.3631ZM314.281 38.4959L312.57 33.7381H306.019L304.343 38.4959H301.39L307.8 21.2928H310.847L317.258 38.4959H314.281ZM311.832 31.324L310.226 26.66C310.109 26.3475 309.945 25.8553 309.734 25.1834C309.531 24.5115 309.39 24.0193 309.312 23.7068C309.101 24.6678 308.793 25.7186 308.386 26.8592L306.84 31.324H311.832ZM334.198 33.8436C334.198 35.367 333.647 36.5623 332.546 37.4295C331.444 38.2967 329.925 38.7303 327.987 38.7303C326.05 38.7303 324.464 38.4295 323.229 37.8279V35.1795C324.011 35.5467 324.839 35.8358 325.714 36.0467C326.597 36.2576 327.417 36.3631 328.175 36.3631C329.284 36.3631 330.1 36.1522 330.624 35.7303C331.155 35.3084 331.421 34.742 331.421 34.0311C331.421 33.3904 331.179 32.8475 330.694 32.4022C330.21 31.9568 329.21 31.4295 327.694 30.8201C326.132 30.1873 325.03 29.4647 324.39 28.6522C323.749 27.8397 323.429 26.8631 323.429 25.7225C323.429 24.2928 323.936 23.1678 324.952 22.3475C325.968 21.5272 327.331 21.117 329.042 21.117C330.683 21.117 332.315 21.4764 333.94 22.1951L333.05 24.4803C331.526 23.8397 330.167 23.5193 328.972 23.5193C328.065 23.5193 327.378 23.7186 326.909 24.117C326.44 24.5076 326.206 25.0272 326.206 25.6756C326.206 26.1209 326.3 26.5037 326.487 26.824C326.675 27.1365 326.983 27.4334 327.413 27.7147C327.843 27.9959 328.616 28.367 329.733 28.8279C330.991 29.3514 331.913 29.8397 332.499 30.2928C333.085 30.7459 333.515 31.2576 333.788 31.8279C334.061 32.3983 334.198 33.0701 334.198 33.8436Z" fill="white" fill-opacity="0.8"/>
</svg>
