<svg width="20" height="20" viewBox="0 0 20 20" fill="none" xmlns="http://www.w3.org/2000/svg">
<path d="M3.57142 0C2.62422 0 1.71582 0.376274 1.04605 1.04605C0.376274 1.71582 0 2.62422 0 3.57142V4.28572H20V3.57142C20 2.62422 19.6237 1.71582 18.954 1.04605C18.2842 0.376274 17.3758 0 16.4286 0H3.57142ZM20 5.71428H0V16.4286C0 17.3758 0.376274 18.2842 1.04605 18.954C1.71582 19.6237 2.62422 20 3.57142 20H16.4286C17.3758 20 18.2842 19.6237 18.954 18.954C19.6237 18.2842 20 17.3758 20 16.4286V5.71428ZM7.14286 10C7.14286 10.3789 6.99234 10.7422 6.72444 11.0102C6.45652 11.2781 6.09316 11.4286 5.71428 11.4286C5.3354 11.4286 4.97204 11.2781 4.70414 11.0102C4.43622 10.7422 4.28572 10.3789 4.28572 10C4.28572 9.62112 4.43622 9.25776 4.70414 8.98984C4.97204 8.72194 5.3354 8.57142 5.71428 8.57142C6.09316 8.57142 6.45652 8.72194 6.72444 8.98984C6.99234 9.25776 7.14286 9.62112 7.14286 10ZM5.71428 15.7143C5.3354 15.7143 4.97204 15.5638 4.70414 15.2959C4.43622 15.028 4.28572 14.6646 4.28572 14.2857C4.28572 13.9068 4.43622 13.5435 4.70414 13.2756C4.97204 13.0077 5.3354 12.8571 5.71428 12.8571C6.09316 12.8571 6.45652 13.0077 6.72444 13.2756C6.99234 13.5435 7.14286 13.9068 7.14286 14.2857C7.14286 14.6646 6.99234 15.028 6.72444 15.2959C6.45652 15.5638 6.09316 15.7143 5.71428 15.7143ZM11.4286 10C11.4286 10.3789 11.2781 10.7422 11.0102 11.0102C10.7422 11.2781 10.3789 11.4286 10 11.4286C9.62112 11.4286 9.25776 11.2781 8.98984 11.0102C8.72194 10.7422 8.57142 10.3789 8.57142 10C8.57142 9.62112 8.72194 9.25776 8.98984 8.98984C9.25776 8.72194 9.62112 8.57142 10 8.57142C10.3789 8.57142 10.7422 8.72194 11.0102 8.98984C11.2781 9.25776 11.4286 9.62112 11.4286 10ZM10 15.7143C9.62112 15.7143 9.25776 15.5638 8.98984 15.2959C8.72194 15.028 8.57142 14.6646 8.57142 14.2857C8.57142 13.9068 8.72194 13.5435 8.98984 13.2756C9.25776 13.0077 9.62112 12.8571 10 12.8571C10.3789 12.8571 10.7422 13.0077 11.0102 13.2756C11.2781 13.5435 11.4286 13.9068 11.4286 14.2857C11.4286 14.6646 11.2781 15.028 11.0102 15.2959C10.7422 15.5638 10.3789 15.7143 10 15.7143ZM15.7143 10C15.7143 10.3789 15.5638 10.7422 15.2959 11.0102C15.028 11.2781 14.6646 11.4286 14.2857 11.4286C13.9068 11.4286 13.5435 11.2781 13.2756 11.0102C13.0077 10.7422 12.8571 10.3789 12.8571 10C12.8571 9.62112 13.0077 9.25776 13.2756 8.98984C13.5435 8.72194 13.9068 8.57142 14.2857 8.57142C14.6646 8.57142 15.028 8.72194 15.2959 8.98984C15.5638 9.25776 15.7143 9.62112 15.7143 10Z" fill="#525596"/>
</svg>
