<svg width="20" height="21" viewBox="0 0 20 21" fill="none" xmlns="http://www.w3.org/2000/svg">
<path fill-rule="evenodd" clip-rule="evenodd" d="M17.7501 11.996C18.3466 11.996 18.9186 12.2329 19.3404 12.6547C19.7622 13.0765 19.9991 13.6485 19.9991 14.245V15.163C19.9992 15.7368 19.8199 16.2962 19.4861 16.763C17.9411 18.926 15.4161 19.996 11.9961 19.996C10.9827 19.996 10.0481 19.9019 9.19443 19.7133L10.5809 18.3268C10.8711 18.0362 11.0342 17.6422 11.0342 17.2315C11.0342 16.8207 10.8708 16.4264 10.5805 16.1358L8.07054 13.6258L8.06021 13.6162C7.76639 13.3424 7.37776 13.1934 6.9762 13.2004C6.57465 13.2075 6.19152 13.3702 5.90753 13.6542C5.62354 13.9382 5.46087 14.3213 5.45378 14.7229C5.44767 15.0693 5.55777 15.4061 5.76391 15.6807L4.63355 15.6808L4.04898 15.6808C4.01659 15.5113 4.00007 15.3383 4.00012 15.164V14.244C4.00038 13.648 4.23717 13.0766 4.65848 12.6551C5.07979 12.2336 5.65117 11.9965 6.24712 11.996H17.7501ZM11.9961 0C13.3222 0 14.594 0.526784 15.5317 1.46447C16.4693 2.40215 16.9961 3.67392 16.9961 5C16.9961 6.32608 16.4693 7.59785 15.5317 8.53553C14.594 9.47322 13.3222 10 11.9961 10C10.67 10 9.39827 9.47322 8.46058 8.53553C7.5229 7.59785 6.99612 6.32608 6.99612 5C6.99612 3.67392 7.5229 2.40215 8.46058 1.46447C9.39827 0.526784 10.67 0 11.9961 0ZM6.45479 15.2613C6.32231 15.1191 6.25018 14.9311 6.25361 14.7368C6.25704 14.5425 6.33575 14.3571 6.47317 14.2197C6.61058 14.0823 6.79596 14.0035 6.99027 14.0001C7.18457 13.9967 7.37261 14.0688 7.51479 14.2013L10.0148 16.7013C10.1552 16.8419 10.2341 17.0325 10.2341 17.2313C10.2341 17.43 10.1552 17.6207 10.0148 17.7613L7.51479 20.2613C7.37327 20.3978 7.18378 20.4734 6.98714 20.4716C6.79049 20.4698 6.60242 20.3908 6.46342 20.2517C6.32443 20.1125 6.24565 19.9244 6.24403 19.7277C6.24241 19.5311 6.3181 19.3417 6.45479 19.2003L7.67479 17.9803H0.794787C-0.265262 17.9803 -0.265262 16.4795 0.796788 16.4803C1.85884 16.4811 7.67379 16.4803 7.67379 16.4803L6.45479 15.2613Z" fill="#525596"/>
</svg>
