<svg width="20" height="21" viewBox="0 0 20 21" fill="none" xmlns="http://www.w3.org/2000/svg">
<path fill-rule="evenodd" clip-rule="evenodd" d="M17.75 11.996C18.3464 11.996 18.9185 12.2329 19.3402 12.6547C19.762 13.0765 19.999 13.6485 19.999 14.245V15.163C19.9991 15.7368 19.8197 16.2962 19.486 16.763C17.941 18.926 15.416 19.996 11.996 19.996C9.89679 19.996 8.13573 19.5924 6.73197 18.7805H9.43925C9.9057 18.7805 10.3217 18.609 10.6179 18.2944C10.9036 17.991 11.0343 17.6009 11.034 17.2297C11.0338 16.8584 10.9026 16.4684 10.6163 16.1652C10.3194 15.8509 9.90315 15.6801 9.43665 15.6805C8.90604 15.6809 7.18723 15.6809 5.60053 15.6808L4.47018 15.6807C4.67632 15.4061 4.78641 15.0693 4.7803 14.7229C4.77321 14.3213 4.61054 13.9382 4.32655 13.6542C4.26566 13.5933 4.2002 13.538 4.13098 13.4886C4.24189 13.1781 4.42077 12.8927 4.65832 12.6551C5.07963 12.2336 5.651 11.9965 6.24696 11.996H17.75ZM11.996 0C13.322 0 14.5938 0.526784 15.5315 1.46447C16.4692 2.40215 16.996 3.67392 16.996 5C16.996 6.32608 16.4692 7.59785 15.5315 8.53553C14.5938 9.47322 13.322 10 11.996 10C10.6699 10 9.3981 9.47322 8.46042 8.53553C7.52274 7.59785 6.99596 6.32608 6.99596 5C6.99596 3.67392 7.52274 2.40215 8.46042 1.46447C9.3981 0.526784 10.6699 0 11.996 0ZM3.77934 15.2613C3.91182 15.1191 3.98394 14.9311 3.98052 14.7368C3.97709 14.5425 3.89837 14.3571 3.76096 14.2197C3.62355 14.0823 3.43816 14.0035 3.24386 14.0001C3.04956 13.9967 2.86152 14.0688 2.71934 14.2013L0.21934 16.7013C0.0788899 16.8419 0 17.0325 0 17.2313C0 17.43 0.0788899 17.6207 0.21934 17.7613L2.71934 20.2613C2.86086 20.3978 3.05034 20.4734 3.24699 20.4716C3.44364 20.4698 3.63171 20.3908 3.7707 20.2517C3.90969 20.1125 3.98848 19.9244 3.9901 19.7277C3.99171 19.5311 3.91603 19.3417 3.77934 19.2003L2.55934 17.9803H9.43934C10.4994 17.9803 10.4994 16.4795 9.43734 16.4803C8.37529 16.4811 2.56034 16.4803 2.56034 16.4803L3.77934 15.2613Z" fill="#525596"/>
</svg>
